<svg width="24" height="24" viewBox="0 0 24 24" fill="none" xmlns="http://www.w3.org/2000/svg">
<g id="Icon 24/telegram-logo-light">
<path id="Vector" d="M20.8013 4.13897C20.7224 4.07096 20.6263 4.02573 20.5235 4.00819C20.4207 3.99064 20.3151 4.00143 20.2179 4.03939L3.63604 10.5129C3.43436 10.5917 3.26371 10.7335 3.14975 10.9173C3.03578 11.101 2.98464 11.3166 3.00401 11.5318C3.02338 11.747 3.1122 11.9501 3.25715 12.1107C3.4021 12.2712 3.59535 12.3805 3.80787 12.4221L8.23603 13.2898V18.2027C8.23613 18.4304 8.30444 18.653 8.43222 18.8417C8.55999 19.0305 8.74139 19.1768 8.95314 19.262C9.16489 19.3472 9.39732 19.3673 9.62061 19.3198C9.84389 19.2722 10.0478 19.1592 10.2063 18.9952L12.386 16.74L15.7881 19.7151C15.9958 19.8985 16.2635 19.9998 16.5409 20C16.662 19.9998 16.7824 19.9808 16.8976 19.9437C17.0866 19.884 17.2566 19.776 17.3907 19.6303C17.5248 19.4847 17.6183 19.3065 17.6618 19.1136L20.9854 4.69973C21.0088 4.59839 21.004 4.49262 20.9715 4.39381C20.9391 4.29499 20.8803 4.20689 20.8013 4.13897ZM3.98542 11.4581C3.98229 11.4497 3.98229 11.4404 3.98542 11.432C3.98911 11.4292 3.99326 11.4269 3.99769 11.4255L17.0654 6.3224L8.61323 12.3625L3.99769 11.4614L3.98542 11.4581ZM9.49935 18.3145C9.4768 18.3378 9.44779 18.3539 9.41603 18.3608C9.38426 18.3676 9.35117 18.3649 9.32098 18.3529C9.29079 18.3409 9.26486 18.3202 9.2465 18.2934C9.22814 18.2667 9.21818 18.2351 9.21789 18.2027V13.9672L11.6472 16.0894L9.49935 18.3145ZM16.7054 18.8924C16.6993 18.92 16.686 18.9454 16.6667 18.9661C16.6474 18.9868 16.6229 19.0019 16.5957 19.0099C16.568 19.0196 16.5382 19.0217 16.5094 19.016C16.4806 19.0102 16.4539 18.9968 16.4321 18.9773L9.51572 12.9249L19.7728 5.59187L16.7054 18.8924Z" fill="#F7FFFD"/>
</g>
</svg>
