<svg width="26" height="26" viewBox="0 0 26 26" fill="none" xmlns="http://www.w3.org/2000/svg">
<g id="Icon 24/currency-exchange">
<rect x="0.5" y="0.5" width="25" height="25" rx="12.5" fill="#DCFEE1"/>
<rect x="0.5" y="0.5" width="25" height="25" rx="12.5" stroke="#DCFEE1"/>
<path id="Vector" d="M12.9998 23C10.9665 23 9.14417 22.4597 7.53283 21.379C5.92083 20.2983 4.71083 18.8443 3.90283 17.017V20.307H2.90283V15.307H7.90283V16.307H4.69883C5.3455 18.0203 6.4285 19.3973 7.94783 20.438C9.46717 21.4787 11.1512 21.9993 12.9998 22C14.1985 22 15.3245 21.785 16.3778 21.355C17.4312 20.9243 18.3588 20.3307 19.1608 19.574C19.9622 18.8167 20.6132 17.918 21.1138 16.878C21.6145 15.838 21.9035 14.712 21.9808 13.5H22.9808C22.9162 14.824 22.6095 16.063 22.0608 17.217C21.5122 18.371 20.7918 19.3777 19.8998 20.237C19.0078 21.0963 17.9695 21.7717 16.7848 22.263C15.5982 22.7543 14.3365 23 12.9998 23ZM12.4838 19.616V18.392C11.8038 18.2347 11.2242 17.9647 10.7448 17.582C10.2655 17.1993 9.88383 16.6653 9.59983 15.98L10.4798 15.599C10.7572 16.2183 11.1275 16.6957 11.5908 17.031C12.0542 17.3663 12.5738 17.534 13.1498 17.534C13.7385 17.534 14.2895 17.379 14.8028 17.069C15.3162 16.7597 15.5728 16.253 15.5728 15.549C15.5728 14.989 15.3878 14.549 15.0178 14.229C14.6478 13.909 13.9252 13.5517 12.8498 13.157C11.7765 12.7683 11.0142 12.358 10.5628 11.926C10.1108 11.494 9.88483 10.9183 9.88483 10.199C9.88483 9.59233 10.1125 9.03233 10.5678 8.519C11.0232 8.00567 11.6788 7.685 12.5348 7.557V6.384H13.5148V7.558C14.0382 7.59533 14.5265 7.776 14.9798 8.1C15.4332 8.424 15.7772 8.82667 16.0118 9.308L15.1418 9.65C14.9318 9.292 14.6575 8.99667 14.3188 8.764C13.9802 8.53133 13.5572 8.41533 13.0498 8.416C12.3898 8.416 11.8605 8.58567 11.4618 8.925C11.0632 9.26433 10.8648 9.68933 10.8668 10.2C10.8688 10.7107 11.0218 11.1037 11.3258 11.379C11.6325 11.6543 12.3372 11.9843 13.4398 12.369C14.6398 12.8023 15.4525 13.2657 15.8778 13.759C16.3038 14.253 16.5168 14.85 16.5168 15.55C16.5168 16.0207 16.4235 16.433 16.2368 16.787C16.0515 17.1403 15.8115 17.4337 15.5168 17.667C15.2228 17.8997 14.8958 18.079 14.5358 18.205C14.1758 18.331 13.8192 18.41 13.4658 18.442V19.616H12.4838ZM3.01983 12.5C3.10983 11.1113 3.43583 9.837 3.99783 8.677C4.55983 7.517 5.29317 6.51367 6.19783 5.667C7.1025 4.82033 8.13683 4.16467 9.30083 3.7C10.4648 3.23533 11.6978 3.002 12.9998 3C14.9945 3 16.8168 3.54333 18.4668 4.63C20.1168 5.71667 21.3268 7.19333 22.0968 9.06V5.692H23.0968V10.692H18.0968V9.692H21.3018C20.6945 8.03067 19.6275 6.66667 18.1008 5.6C16.5742 4.53333 14.8738 4 12.9998 4C11.8525 4 10.7555 4.20867 9.70883 4.626C8.66217 5.04333 7.73117 5.624 6.91583 6.368C6.1005 7.112 5.43317 8.00433 4.91383 9.045C4.3945 10.0857 4.0965 11.2373 4.01983 12.5H3.01983Z" fill="#061814"/>
</g>
</svg>
