<svg width="25" height="24" viewBox="0 0 25 24" fill="none" xmlns="http://www.w3.org/2000/svg">
<g clip-path="url(#clip0_3002_22263)">
<g filter="url(#filter0_d_3002_22263)">
<path d="M12.6666 14.3787C12.5593 14.3787 12.4599 14.3611 12.3686 14.3257C12.2773 14.2904 12.1883 14.2291 12.1016 14.1417L7.7126 9.75374C7.61927 9.66041 7.56927 9.54574 7.5626 9.40974C7.55593 9.27374 7.60593 9.15241 7.7126 9.04574C7.81927 8.93908 7.93727 8.88574 8.0666 8.88574C8.19593 8.88574 8.31393 8.93908 8.4206 9.04574L12.6666 13.2917L16.9126 9.04574C17.0059 8.95241 17.1209 8.90241 17.2576 8.89574C17.3929 8.88908 17.5139 8.93908 17.6206 9.04574C17.7273 9.15241 17.7806 9.27041 17.7806 9.39974C17.7806 9.52908 17.7273 9.64708 17.6206 9.75374L13.2316 14.1417C13.1449 14.2291 13.0559 14.2904 12.9646 14.3257C12.8739 14.3611 12.7746 14.3787 12.6666 14.3787Z" fill="#F7FFFD"/>
</g>
</g>
<defs>
<filter id="filter0_d_3002_22263" x="-7.43799" y="-6.11426" width="40.2186" height="35.4932" filterUnits="userSpaceOnUse" color-interpolation-filters="sRGB">
<feFlood flood-opacity="0" result="BackgroundImageFix"/>
<feColorMatrix in="SourceAlpha" type="matrix" values="0 0 0 0 0 0 0 0 0 0 0 0 0 0 0 0 0 0 127 0" result="hardAlpha"/>
<feOffset/>
<feGaussianBlur stdDeviation="7.5"/>
<feComposite in2="hardAlpha" operator="out"/>
<feColorMatrix type="matrix" values="0 0 0 0 0.816667 0 0 0 0 1 0 0 0 0 0.886944 0 0 0 0.5 0"/>
<feBlend mode="normal" in2="BackgroundImageFix" result="effect1_dropShadow_3002_22263"/>
<feBlend mode="normal" in="SourceGraphic" in2="effect1_dropShadow_3002_22263" result="shape"/>
</filter>
<clipPath id="clip0_3002_22263">
<rect width="24" height="24" fill="white" transform="translate(0.666626)"/>
</clipPath>
</defs>
</svg>
