<svg xmlns="http://www.w3.org/2000/svg" width="25" height="24" viewBox="0 0 25 24" fill="none">
  <path d="M12.5001 14.379C12.3928 14.379 12.2934 14.3613 12.2021 14.326C12.1108 14.2907 12.0218 14.2293 11.9351 14.142L7.5461 9.75399C7.45276 9.66065 7.40276 9.54599 7.3961 9.40999C7.38943 9.27399 7.43943 9.15265 7.5461 9.04599C7.65276 8.93932 7.77076 8.88599 7.9001 8.88599C8.02943 8.88599 8.14743 8.93932 8.2541 9.04599L12.5001 13.292L16.7461 9.04599C16.8394 8.95265 16.9544 8.90265 17.0911 8.89599C17.2264 8.88932 17.3474 8.93932 17.4541 9.04599C17.5608 9.15265 17.6141 9.27065 17.6141 9.39999C17.6141 9.52932 17.5608 9.64732 17.4541 9.75399L13.0651 14.142C12.9784 14.2293 12.8894 14.2907 12.7981 14.326C12.7074 14.3613 12.6081 14.379 12.5001 14.379Z" fill="#388964"/>
</svg>
