<svg width="87" height="20" viewBox="0 0 87 20" fill="none" xmlns="http://www.w3.org/2000/svg">
<g id="Vector">
<path d="M0 19V1H13.3594C15.1172 1 16.5625 1.10547 17.6953 1.31641C18.8281 1.52734 19.7109 1.9375 20.3438 2.54688C20.9844 3.14844 21.4297 4.02734 21.6797 5.18359C21.9375 6.33984 22.0664 7.86719 22.0664 9.76562V10.2344C22.0664 12.0703 21.9375 13.5664 21.6797 14.7227C21.4297 15.8711 20.9844 16.7578 20.3438 17.3828C19.7109 18 18.8281 18.4258 17.6953 18.6602C16.5625 18.8867 15.1172 19 13.3594 19H0ZM2.25 17.0547H13.3594C14.7578 17.0547 15.8828 16.9883 16.7344 16.8555C17.5859 16.7227 18.2344 16.4336 18.6797 15.9883C19.125 15.543 19.4258 14.8633 19.582 13.9492C19.7383 13.0352 19.8164 11.7969 19.8164 10.2344V9.76562C19.8164 8.46875 19.7695 7.39844 19.6758 6.55469C19.582 5.71094 19.4062 5.04688 19.1484 4.5625C18.8984 4.07031 18.5312 3.71094 18.0469 3.48438C17.5703 3.25 16.9492 3.10156 16.1836 3.03906C15.418 2.97656 14.4766 2.94531 13.3594 2.94531H2.25V17.0547Z" fill="url(#paint0_linear_6004_4830)"/>
<path d="M40.9531 19V1H43.2031V8.875H46.1914L57.8281 1H61.2031L48.4531 9.8125L61.5781 19H58.2031L46.2031 10.75H43.2031V19H40.9531Z" fill="url(#paint1_linear_6004_4830)"/>
<path d="M72.9102 19.375C71.1523 19.375 69.707 19.2539 68.5742 19.0117C67.4414 18.7773 66.5547 18.3398 65.9141 17.6992C65.2812 17.0586 64.8359 16.1367 64.5781 14.9336C64.3281 13.7305 64.2031 12.1641 64.2031 10.2344V9.76562C64.2031 8.17188 64.2812 6.83594 64.4375 5.75781C64.5938 4.67188 64.8633 3.78906 65.2461 3.10938C65.6289 2.42969 66.1484 1.91016 66.8047 1.55078C67.4688 1.19141 68.3008 0.949219 69.3008 0.824219C70.3008 0.691406 71.5039 0.625 72.9102 0.625H77.6328C79.0391 0.625 80.2422 0.691406 81.2422 0.824219C82.2422 0.949219 83.0703 1.19141 83.7266 1.55078C84.3906 1.91016 84.9141 2.42969 85.2969 3.10938C85.6797 3.78906 85.9492 4.67188 86.1055 5.75781C86.2617 6.83594 86.3398 8.17188 86.3398 9.76562V10.2344C86.3398 12.1641 86.2109 13.7305 85.9531 14.9336C85.7031 16.1367 85.2578 17.0586 84.6172 17.6992C83.9844 18.3398 83.1016 18.7773 81.9688 19.0117C80.8359 19.2539 79.3906 19.375 77.6328 19.375H72.9102ZM72.9102 17.4297H77.6328C78.75 17.4297 79.6914 17.3906 80.457 17.3125C81.2227 17.2344 81.8438 17.0664 82.3203 16.8086C82.8047 16.5508 83.1719 16.1602 83.4219 15.6367C83.6797 15.1133 83.8555 14.4141 83.9492 13.5391C84.043 12.6641 84.0898 11.5625 84.0898 10.2344V9.76562C84.0898 8.39062 84.043 7.25781 83.9492 6.36719C83.8555 5.47656 83.6797 4.77344 83.4219 4.25781C83.1719 3.74219 82.8047 3.36719 82.3203 3.13281C81.8438 2.89062 81.2227 2.73828 80.457 2.67578C79.6914 2.60547 78.75 2.57031 77.6328 2.57031H72.9102C71.793 2.57031 70.8516 2.60547 70.0859 2.67578C69.3203 2.73828 68.6953 2.89062 68.2109 3.13281C67.7344 3.36719 67.3672 3.74219 67.1094 4.25781C66.8594 4.77344 66.6875 5.47656 66.5938 6.36719C66.5 7.25781 66.4531 8.39062 66.4531 9.76562V10.2344C66.4531 11.5625 66.5 12.6641 66.5938 13.5391C66.6875 14.4141 66.8594 15.1133 67.1094 15.6367C67.3672 16.1602 67.7344 16.5508 68.2109 16.8086C68.6953 17.0664 69.3203 17.2344 70.0859 17.3125C70.8516 17.3906 71.793 17.4297 72.9102 17.4297Z" fill="url(#paint2_linear_6004_4830)"/>
<path d="M29.7801 2.22478C30.5582 1.88579 30.9052 3.12875 31.1269 2.45077C31.3486 1.7728 31.3486 1.20782 31.8886 1.20782C32.7755 1.43381 32.124 2.56377 32.5682 2.78976C33.0123 3.01575 33.2178 2.11179 33.6613 2.45077C33.6613 2.45077 33.7877 2.45077 33.8985 3.12875C34.0094 3.80672 34.9917 2.56377 35.4351 3.91972C35.546 4.71069 34.674 5.38867 34.7855 5.95365C34.8971 6.51863 36.636 4.67914 36.8764 6.63162C37.099 8.43956 34.8963 9.23053 34.8963 10.0215C34.8963 10.8125 36.4487 9.68251 36.1159 11.2645C35.9515 12.0457 34.2311 12.8464 34.5637 13.0724C34.8963 13.2984 35.2289 13.0724 35.2289 13.6374C35.2289 14.2023 32.8825 14.9827 33.0116 15.4453C33.1407 15.9079 33.8839 15.3323 34.1056 15.7843C34.3206 16.7703 32.9326 16.4366 31.7734 18.0037C31.737 18.053 31.7008 18.1041 31.6648 18.1572C31.6198 18.0925 31.5764 18.0309 31.5344 17.9724C30.4172 16.4171 30.3227 17.0027 29.5748 16.3493C29.5748 16.3493 29.0369 15.7843 30.3509 15.5583C31.6648 15.3323 28.1342 14.2023 28.2444 13.2984C28.2451 12.2814 29.2421 12.8464 29.2422 12.1684C29.2423 11.4904 26.2994 10.1345 27 7.76158C27.3335 6.63162 28.7838 7.64858 28.7824 6.97061C28.7809 6.29263 27.4529 4.93668 28.0063 4.25871C28.7832 3.69373 29.5748 5.16267 29.7965 4.71069C30.0183 4.25871 29.2278 2.56377 29.7801 2.22478Z" fill="url(#paint3_linear_6004_4830)"/>
<path d="M31.8866 4.60921L31.7734 18.0037L31.8361 19.1922C31.8361 19.1922 31.7085 19.2251 31.6144 19.1953C31.6023 19.1915 31.531 18.3808 31.5344 17.9724C31.5572 15.2159 31.8866 4.60921 31.8866 4.60921Z" fill="#1C2A25"/>
</g>
<defs>
<linearGradient id="paint0_linear_6004_4830" x1="86.3398" y1="0.624999" x2="78.5629" y2="36.4361" gradientUnits="userSpaceOnUse">
<stop stop-color="#E5A000"/>
<stop offset="0.0983334" stop-color="#FFAA00"/>
<stop offset="0.478333" stop-color="#FFCF00"/>
<stop offset="0.623333" stop-color="#FFD300"/>
<stop offset="1" stop-color="#FFF6C5"/>
</linearGradient>
<linearGradient id="paint1_linear_6004_4830" x1="86.3398" y1="0.624999" x2="78.5629" y2="36.4361" gradientUnits="userSpaceOnUse">
<stop stop-color="#E5A000"/>
<stop offset="0.0983334" stop-color="#FFAA00"/>
<stop offset="0.478333" stop-color="#FFCF00"/>
<stop offset="0.623333" stop-color="#FFD300"/>
<stop offset="1" stop-color="#FFF6C5"/>
</linearGradient>
<linearGradient id="paint2_linear_6004_4830" x1="86.3398" y1="0.624999" x2="78.5629" y2="36.4361" gradientUnits="userSpaceOnUse">
<stop stop-color="#E5A000"/>
<stop offset="0.0983334" stop-color="#FFAA00"/>
<stop offset="0.478333" stop-color="#FFCF00"/>
<stop offset="0.623333" stop-color="#FFD300"/>
<stop offset="1" stop-color="#FFF6C5"/>
</linearGradient>
<linearGradient id="paint3_linear_6004_4830" x1="86.3398" y1="0.624999" x2="78.5629" y2="36.4361" gradientUnits="userSpaceOnUse">
<stop stop-color="#E5A000"/>
<stop offset="0.0983334" stop-color="#FFAA00"/>
<stop offset="0.478333" stop-color="#FFCF00"/>
<stop offset="0.623333" stop-color="#FFD300"/>
<stop offset="1" stop-color="#FFF6C5"/>
</linearGradient>
</defs>
</svg>
