<svg width="24" height="25" viewBox="0 0 24 25" fill="none" xmlns="http://www.w3.org/2000/svg">
<g id="Icon 24/menu-rounded">
<path id="Vector" d="M4.50001 17.77C4.35801 17.77 4.23934 17.7216 4.14401 17.625C4.04867 17.5283 4.00067 17.4093 4.00001 17.268C3.99934 17.1266 4.04734 17.008 4.14401 16.912C4.24067 16.816 4.35934 16.7683 4.50001 16.769H19.5C19.642 16.769 19.7607 16.817 19.856 16.913C19.952 17.009 20 17.128 20 17.27C20 17.412 19.952 17.5306 19.856 17.626C19.76 17.7213 19.6413 17.769 19.5 17.769L4.50001 17.77ZM4.50001 13C4.35801 13 4.23934 12.952 4.14401 12.856C4.04867 12.76 4.00067 12.641 4.00001 12.499C3.99934 12.357 4.04734 12.2383 4.14401 12.143C4.24067 12.0476 4.35934 12 4.50001 12H19.5C19.642 12 19.7607 12.048 19.856 12.144C19.9513 12.24 19.9993 12.359 20 12.501C20.0007 12.643 19.9527 12.7616 19.856 12.857C19.7593 12.9523 19.6407 13 19.5 13H4.50001ZM4.50001 8.22996C4.35801 8.22996 4.23934 8.18229 4.14401 8.08696C4.04801 7.99096 4.00001 7.87196 4.00001 7.72996C4.00001 7.58796 4.04801 7.46929 4.14401 7.37396C4.24001 7.27862 4.35867 7.23096 4.50001 7.23096H19.5C19.642 7.23096 19.7607 7.27896 19.856 7.37496C19.9513 7.47096 19.9993 7.58929 20 7.72996C20.0007 7.87062 19.9527 7.98929 19.856 8.08596C19.7593 8.18262 19.6407 8.23062 19.5 8.22996H4.50001Z" fill="#DEE6E5"/>
</g>
</svg>
