<svg width="26" height="26" viewBox="0 0 26 26" fill="none" xmlns="http://www.w3.org/2000/svg">
<g id="Icon 24/psychology-alt-outline-rounded">
<rect x="0.5" y="0.5" width="25" height="25" rx="12.5" stroke="#DCFEE1"/>
<path id="Vector" d="M8 18.239C7.05 17.3723 6.31267 16.398 5.788 15.316C5.26333 14.234 5.00067 13.124 5 11.986C5 9.768 5.77767 7.88233 7.333 6.329C8.88833 4.77567 10.7773 3.99933 13 4C14.8013 4 16.4293 4.54833 17.884 5.645C19.3387 6.74167 20.282 8.15833 20.714 9.895L21.75 13.998C21.8167 14.2513 21.7693 14.482 21.608 14.69C21.4467 14.8967 21.2313 15 20.962 15H19V18.385C19 18.829 18.8417 19.209 18.525 19.525C18.2083 19.841 17.8283 19.9993 17.385 20H15V21.5C15 21.642 14.952 21.7607 14.856 21.856C14.76 21.9513 14.641 21.9993 14.499 22C14.357 22.0007 14.2383 21.9527 14.143 21.856C14.0477 21.7593 14 21.6407 14 21.5V19.817C14 19.579 14.0773 19.3833 14.232 19.23C14.3867 19.0767 14.5787 19 14.808 19H17.385C17.5643 19 17.7117 18.9423 17.827 18.827C17.9423 18.7117 18 18.5643 18 18.385V14.808C18 14.5787 18.0773 14.3867 18.232 14.232C18.3867 14.0773 18.5787 14 18.808 14H20.7L19.75 10.125C19.3667 8.59567 18.5433 7.359 17.28 6.415C16.0187 5.47167 14.592 5 13 5C11.0667 5 9.41667 5.67667 8.05 7.03C6.68333 8.38467 6 10.0313 6 11.97C6 12.966 6.20433 13.9127 6.613 14.81C7.021 15.7073 7.6 16.5047 8.35 17.202L9 17.8V21.5C9 21.642 8.952 21.7607 8.856 21.856C8.76 21.9513 8.641 21.9993 8.499 22C8.357 22.0007 8.23833 21.9527 8.143 21.856C8.04767 21.7593 8 21.6407 8 21.5V18.239ZM12.807 16.808C13.0137 16.808 13.1873 16.738 13.328 16.598C13.468 16.458 13.538 16.2847 13.538 16.078C13.538 15.8713 13.468 15.6977 13.328 15.557C13.188 15.4163 13.0147 15.3463 12.808 15.347C12.6013 15.3477 12.428 15.4173 12.288 15.556C12.148 15.6947 12.0777 15.868 12.077 16.076C12.0763 16.284 12.1463 16.4577 12.287 16.597C12.4277 16.7363 12.601 16.8073 12.807 16.808ZM12.881 8.733C13.3383 8.733 13.7167 8.86133 14.016 9.118C14.316 9.37533 14.466 9.70767 14.466 10.115C14.466 10.377 14.395 10.627 14.253 10.865C14.111 11.1023 13.819 11.4503 13.377 11.909C13.099 12.2043 12.8827 12.491 12.728 12.769C12.5733 13.0457 12.471 13.3317 12.421 13.627C12.401 13.737 12.4323 13.8383 12.515 13.931C12.5977 14.0237 12.703 14.0697 12.831 14.069C12.9383 14.069 13.036 14.0323 13.124 13.959C13.212 13.885 13.2747 13.7847 13.312 13.658C13.362 13.4447 13.454 13.2297 13.588 13.013C13.722 12.7963 13.912 12.5497 14.158 12.273C14.6273 11.7537 14.9453 11.347 15.112 11.053C15.2787 10.759 15.362 10.4463 15.362 10.115C15.362 9.479 15.1297 8.94833 14.665 8.523C14.1997 8.097 13.6057 7.884 12.883 7.884C12.4143 7.884 11.971 7.994 11.553 8.214C11.1357 8.434 10.798 8.74333 10.54 9.142C10.4787 9.24467 10.4713 9.34933 10.518 9.456C10.5647 9.56267 10.6413 9.63833 10.748 9.683C10.8547 9.72767 10.9603 9.73667 11.065 9.71C11.1697 9.68333 11.263 9.617 11.345 9.511C11.537 9.25967 11.768 9.06733 12.038 8.934C12.3087 8.8 12.5897 8.733 12.881 8.733Z" fill="#DCFEE1"/>
</g>
</svg>
