<svg width="24" height="24" viewBox="0 0 24 24" fill="none" xmlns="http://www.w3.org/2000/svg">
<path d="M7 17.239C6.05 16.3723 5.31267 15.398 4.788 14.316C4.26333 13.234 4.00067 12.124 4 10.986C4 8.768 4.77767 6.88233 6.333 5.329C7.88833 3.77567 9.77733 2.99933 12 3C13.8013 3 15.4293 3.54833 16.884 4.645C18.3387 5.74167 19.282 7.15833 19.714 8.895L20.75 12.998C20.8167 13.2513 20.7693 13.482 20.608 13.69C20.4467 13.8967 20.2313 14 19.962 14H18V17.385C18 17.829 17.8417 18.209 17.525 18.525C17.2083 18.841 16.8283 18.9993 16.385 19H14V20.5C14 20.642 13.952 20.7607 13.856 20.856C13.76 20.9513 13.641 20.9993 13.499 21C13.357 21.0007 13.2383 20.9527 13.143 20.856C13.0477 20.7593 13 20.6407 13 20.5V18.817C13 18.579 13.0773 18.3833 13.232 18.23C13.3867 18.0767 13.5787 18 13.808 18H16.385C16.5643 18 16.7117 17.9423 16.827 17.827C16.9423 17.7117 17 17.5643 17 17.385V13.808C17 13.5787 17.0773 13.3867 17.232 13.232C17.3867 13.0773 17.5787 13 17.808 13H19.7L18.75 9.125C18.3667 7.59567 17.5433 6.359 16.28 5.415C15.0187 4.47167 13.592 4 12 4C10.0667 4 8.41667 4.67667 7.05 6.03C5.68333 7.38467 5 9.03133 5 10.97C5 11.966 5.20433 12.9127 5.613 13.81C6.021 14.7073 6.6 15.5047 7.35 16.202L8 16.8V20.5C8 20.642 7.952 20.7607 7.856 20.856C7.76 20.9513 7.641 20.9993 7.499 21C7.357 21.0007 7.23833 20.9527 7.143 20.856C7.04767 20.7593 7 20.6407 7 20.5V17.239ZM11.807 15.808C12.0137 15.808 12.1873 15.738 12.328 15.598C12.468 15.458 12.538 15.2847 12.538 15.078C12.538 14.8713 12.468 14.6977 12.328 14.557C12.188 14.4163 12.0147 14.3463 11.808 14.347C11.6013 14.3477 11.428 14.4173 11.288 14.556C11.148 14.6947 11.0777 14.868 11.077 15.076C11.0763 15.284 11.1463 15.4577 11.287 15.597C11.4277 15.7363 11.601 15.8073 11.807 15.808ZM11.881 7.733C12.3383 7.733 12.7167 7.86133 13.016 8.118C13.316 8.37533 13.466 8.70767 13.466 9.115C13.466 9.377 13.395 9.627 13.253 9.865C13.111 10.1023 12.819 10.4503 12.377 10.909C12.099 11.2043 11.8827 11.491 11.728 11.769C11.5733 12.0457 11.471 12.3317 11.421 12.627C11.401 12.737 11.4323 12.8383 11.515 12.931C11.5977 13.0237 11.703 13.0697 11.831 13.069C11.9383 13.069 12.036 13.0323 12.124 12.959C12.212 12.885 12.2747 12.7847 12.312 12.658C12.362 12.4447 12.454 12.2297 12.588 12.013C12.722 11.7963 12.912 11.5497 13.158 11.273C13.6273 10.7537 13.9453 10.347 14.112 10.053C14.2787 9.759 14.362 9.44633 14.362 9.115C14.362 8.479 14.1297 7.94833 13.665 7.523C13.1997 7.097 12.6057 6.884 11.883 6.884C11.4143 6.884 10.971 6.994 10.553 7.214C10.1357 7.434 9.798 7.74333 9.54 8.142C9.47867 8.24467 9.47133 8.34933 9.518 8.456C9.56467 8.56267 9.64133 8.63833 9.748 8.683C9.85467 8.72767 9.96033 8.73667 10.065 8.71C10.1697 8.68333 10.263 8.617 10.345 8.511C10.537 8.25967 10.768 8.06733 11.038 7.934C11.3087 7.8 11.5897 7.733 11.881 7.733Z" fill="#F7FFFD"/>
</svg>
