<svg width="25" height="24" viewBox="0 0 25 24" fill="none" xmlns="http://www.w3.org/2000/svg">
<g id="Icon 24/search-rounded">
<path id="Vector" d="M10.3168 15.2295C8.71809 15.2295 7.36309 14.6742 6.25175 13.5635C5.14109 12.4535 4.58575 11.0989 4.58575 9.49953C4.58575 7.9002 5.14109 6.5452 6.25175 5.43453C7.36242 4.32387 8.71742 3.76887 10.3168 3.76953C11.9161 3.7702 13.2708 4.32553 14.3808 5.43553C15.4908 6.54553 16.0461 7.9002 16.0468 9.49953C16.0468 10.1942 15.9238 10.8665 15.6778 11.5165C15.4318 12.1665 15.1084 12.7225 14.7078 13.1845L20.6168 19.0915C20.7101 19.1849 20.7601 19.2999 20.7668 19.4365C20.7728 19.5719 20.7228 19.6929 20.6168 19.7995C20.5101 19.9062 20.3921 19.9595 20.2628 19.9595C20.1334 19.9595 20.0154 19.9062 19.9088 19.7995L14.0008 13.8915C13.5008 14.3175 12.9258 14.6472 12.2758 14.8805C11.6258 15.1139 10.9724 15.2305 10.3158 15.2305M10.3158 14.2305C11.6424 14.2305 12.7628 13.7739 13.6768 12.8605C14.5901 11.9472 15.0468 10.8269 15.0468 9.49953C15.0468 8.1722 14.5904 7.0522 13.6778 6.13953C12.7651 5.22687 11.6451 4.7702 10.3178 4.76953C8.99042 4.76953 7.87009 5.2262 6.95675 6.13953C6.04342 7.05287 5.58642 8.17286 5.58575 9.49953C5.58509 10.8262 6.04175 11.9462 6.95575 12.8595C7.86975 13.7729 8.98975 14.2295 10.3158 14.2295" fill="#34403E"/>
</g>
</svg>
