<svg width="20" height="21" viewBox="0 0 20 21" fill="none" xmlns="http://www.w3.org/2000/svg">
<path d="M3.85 15.6C4.7 14.95 5.65 14.4377 6.7 14.063C7.75 13.6883 8.85 13.5007 10 13.5C11.15 13.4993 12.25 13.687 13.3 14.063C14.35 14.439 15.3 14.9513 16.15 15.6C16.7333 14.9167 17.1877 14.1417 17.513 13.275C17.8383 12.4083 18.0007 11.4833 18 10.5C18 8.28333 17.221 6.39567 15.663 4.837C14.105 3.27833 12.2173 2.49933 10 2.5C7.78267 2.50067 5.895 3.28 4.337 4.838C2.779 6.396 2 8.28333 2 10.5C2 11.4833 2.16267 12.4083 2.488 13.275C2.81333 14.1417 3.26733 14.9167 3.85 15.6ZM10 11.5C9.01667 11.5 8.18734 11.1627 7.512 10.488C6.83667 9.81333 6.49933 8.984 6.5 8C6.50067 7.016 6.83833 6.18667 7.513 5.512C8.18767 4.83733 9.01667 4.5 10 4.5C10.9833 4.5 11.8127 4.83767 12.488 5.513C13.1633 6.18833 13.5007 7.01733 13.5 8C13.4993 8.98267 13.162 9.812 12.488 10.488C11.814 11.164 10.9847 11.5013 10 11.5ZM10 20.5C8.61667 20.5 7.31667 20.2373 6.1 19.712C4.88334 19.1867 3.825 18.4743 2.925 17.575C2.025 16.6757 1.31267 15.6173 0.788001 14.4C0.263335 13.1827 0.000667933 11.8827 1.26582e-06 10.5C-0.000665401 9.11733 0.262001 7.81733 0.788001 6.6C1.314 5.38267 2.02633 4.32433 2.925 3.425C3.82367 2.52567 4.882 1.81333 6.1 1.288C7.318 0.762667 8.618 0.5 10 0.5C11.382 0.5 12.682 0.762667 13.9 1.288C15.118 1.81333 16.1763 2.52567 17.075 3.425C17.9737 4.32433 18.6863 5.38267 19.213 6.6C19.7397 7.81733 20.002 9.11733 20 10.5C19.998 11.8827 19.7353 13.1827 19.212 14.4C18.6887 15.6173 17.9763 16.6757 17.075 17.575C16.1737 18.4743 15.1153 19.187 13.9 19.713C12.6847 20.239 11.3847 20.5013 10 20.5Z" fill="black"/>
</svg>
