<svg width="13" height="19" viewBox="0 0 13 19" fill="none" xmlns="http://www.w3.org/2000/svg">
<path d="M1 18.5C0.71667 18.5 0.479337 18.404 0.288004 18.212C0.0966702 18.02 0.000670115 17.7827 3.44827e-06 17.5V17.05C3.44827e-06 16.8667 0.0416701 16.7 0.125003 16.55C0.208337 16.4 0.31667 16.2833 0.450003 16.2C1.08334 15.7833 1.6 15.2583 2 14.625C2.4 13.9917 2.6 13.2833 2.6 12.5C2.6 12.3167 2.58734 12.1417 2.562 11.975C2.53667 11.8083 2.508 11.65 2.476 11.5H1C0.71667 11.5 0.479337 11.404 0.288004 11.212C0.0966702 11.02 0.000670115 10.7827 3.44827e-06 10.5C-0.000663218 10.2173 0.0953369 9.98 0.288004 9.788C0.48067 9.596 0.718003 9.5 1 9.5H1.5C1.15 8.95 0.81267 8.371 0.488003 7.763C0.163337 7.155 0.000670115 6.40067 3.44827e-06 5.5C3.44827e-06 3.96667 0.533337 2.66667 1.6 1.6C2.66667 0.533333 3.96667 0 5.5 0C6.51667 0 7.43767 0.245667 8.263 0.737C9.08834 1.22833 9.74234 1.87433 10.225 2.675C10.3583 2.90833 10.3667 3.14167 10.25 3.375C10.1333 3.60833 9.95 3.78333 9.7 3.9C9.45 4 9.20434 4.00433 8.963 3.913C8.72167 3.82167 8.51734 3.66733 8.35 3.45C8.03334 3.01667 7.625 2.66667 7.125 2.4C6.625 2.13333 6.08334 2 5.5 2C4.53334 2 3.70834 2.34167 3.025 3.025C2.34167 3.70833 2 4.53333 2 5.5C2 6.3 2.2 6.96667 2.6 7.5C3 8.03333 3.40834 8.7 3.825 9.5H7C7.28334 9.5 7.521 9.596 7.713 9.788C7.905 9.98 8.00067 10.2173 8 10.5C7.99934 10.7827 7.90334 11.0203 7.712 11.213C7.52067 11.4057 7.28334 11.5013 7 11.5H4.525C4.55834 11.65 4.57934 11.8083 4.588 11.975C4.59667 12.1417 4.60067 12.3167 4.6 12.5C4.6 13.3333 4.45434 14.0833 4.163 14.75C3.87167 15.4167 3.51734 16 3.1 16.5H8C8.58334 16.5 9.05834 16.3623 9.425 16.087C9.79167 15.8117 10.0333 15.441 10.15 14.975C10.2167 14.725 10.3293 14.5123 10.488 14.337C10.6467 14.1617 10.859 14.0743 11.125 14.075C11.4083 14.075 11.6417 14.171 11.825 14.363C12.0083 14.555 12.1 14.7923 12.1 15.075C12.1 16.0917 11.6457 16.9167 10.737 17.55C9.82834 18.1833 8.916 18.5 8 18.5H1Z" fill="black"/>
</svg>
