<svg width="67" height="20" viewBox="0 0 67 20" fill="none" xmlns="http://www.w3.org/2000/svg">
<path d="M9.04545 4.35436H10.4545V12.0589C10.4545 12.8544 10.267 13.5646 9.89205 14.1896C9.52083 14.8108 8.99621 15.3013 8.31818 15.6612C7.64015 16.0172 6.8447 16.1953 5.93182 16.1953C5.01894 16.1953 4.22348 16.0172 3.54545 15.6612C2.86742 15.3013 2.34091 14.8108 1.96591 14.1896C1.5947 13.5646 1.40909 12.8544 1.40909 12.0589V4.35436H2.81818V11.9453C2.81818 12.5134 2.94318 13.0191 3.19318 13.4623C3.44318 13.9017 3.79924 14.2483 4.26136 14.5021C4.72727 14.7521 5.28409 14.8771 5.93182 14.8771C6.57955 14.8771 7.13636 14.7521 7.60227 14.5021C8.06818 14.2483 8.42424 13.9017 8.67045 13.4623C8.92045 13.0191 9.04545 12.5134 9.04545 11.9453V4.35436ZM13.7457 15.9907H12.2685L16.5412 4.35436H17.9957L22.2685 15.9907H20.7912L17.3139 6.19527H17.223L13.7457 15.9907ZM14.2912 11.4453H20.2457V12.6953H14.2912V11.4453Z" fill="black"/>
<path d="M34.1818 0.604359V19.7407H33.0455V0.604359H34.1818Z" fill="black"/>
<path d="M46.4091 15.9907V4.35436H53.4318V5.60436H47.8182V9.53618H53.0682V10.7862H47.8182V14.7407H53.5227V15.9907H46.4091ZM65.1989 4.35436V15.9907H63.8352L57.4943 6.85436H57.3807V15.9907H55.9716V4.35436H57.3352L63.6989 13.5134H63.8125V4.35436H65.1989Z" fill="#828282"/>
</svg>
