<svg width="22" height="13" viewBox="0 0 22 13" fill="none" xmlns="http://www.w3.org/2000/svg">
<path d="M8.04545 0.363636H9.45455V8.06818C9.45455 8.86364 9.26705 9.57386 8.89205 10.1989C8.52083 10.8201 7.99621 11.3106 7.31818 11.6705C6.64015 12.0265 5.8447 12.2045 4.93182 12.2045C4.01894 12.2045 3.22348 12.0265 2.54545 11.6705C1.86742 11.3106 1.34091 10.8201 0.965909 10.1989C0.594697 9.57386 0.409091 8.86364 0.409091 8.06818V0.363636H1.81818V7.95455C1.81818 8.52273 1.94318 9.02841 2.19318 9.47159C2.44318 9.91098 2.79924 10.2576 3.26136 10.5114C3.72727 10.7614 4.28409 10.8864 4.93182 10.8864C5.57955 10.8864 6.13636 10.7614 6.60227 10.5114C7.06818 10.2576 7.42424 9.91098 7.67045 9.47159C7.92045 9.02841 8.04545 8.52273 8.04545 7.95455V0.363636ZM12.7457 12H11.2685L15.5412 0.363636H16.9957L21.2685 12H19.7912L16.3139 2.20455H16.223L12.7457 12ZM13.2912 7.45455H19.2457V8.70455H13.2912V7.45455Z" fill="black"/>
</svg>
