<svg width="24" height="24" viewBox="0 0 24 24" fill="none" xmlns="http://www.w3.org/2000/svg">
<path d="M12 22C9.96667 22 8.14433 21.4597 6.533 20.379C4.921 19.2983 3.711 17.8443 2.903 16.017V19.307H1.903V14.307H6.903V15.307H3.699C4.34567 17.0203 5.42867 18.3973 6.948 19.438C8.46733 20.4787 10.1513 20.9993 12 21C13.1987 21 14.3247 20.785 15.378 20.355C16.4313 19.9243 17.359 19.3307 18.161 18.574C18.9623 17.8167 19.6133 16.918 20.114 15.878C20.6147 14.838 20.9037 13.712 20.981 12.5H21.981C21.9163 13.824 21.6097 15.063 21.061 16.217C20.5123 17.371 19.792 18.3777 18.9 19.237C18.008 20.0963 16.9697 20.7717 15.785 21.263C14.5983 21.7543 13.3367 22 12 22ZM11.484 18.616V17.392C10.804 17.2347 10.2243 16.9647 9.745 16.582C9.26567 16.1993 8.884 15.6653 8.6 14.98L9.48 14.599C9.75733 15.2183 10.1277 15.6957 10.591 16.031C11.0543 16.3663 11.574 16.534 12.15 16.534C12.7387 16.534 13.2897 16.379 13.803 16.069C14.3163 15.7597 14.573 15.253 14.573 14.549C14.573 13.989 14.388 13.549 14.018 13.229C13.648 12.909 12.9253 12.5517 11.85 12.157C10.7767 11.7683 10.0143 11.358 9.563 10.926C9.111 10.494 8.885 9.91833 8.885 9.199C8.885 8.59233 9.11267 8.03233 9.568 7.519C10.0233 7.00567 10.679 6.685 11.535 6.557V5.384H12.515V6.558C13.0383 6.59533 13.5267 6.776 13.98 7.1C14.4333 7.424 14.7773 7.82667 15.012 8.308L14.142 8.65C13.932 8.292 13.6577 7.99667 13.319 7.764C12.9803 7.53133 12.5573 7.41533 12.05 7.416C11.39 7.416 10.8607 7.58567 10.462 7.925C10.0633 8.26433 9.865 8.68933 9.867 9.2C9.869 9.71067 10.022 10.1037 10.326 10.379C10.6327 10.6543 11.3373 10.9843 12.44 11.369C13.64 11.8023 14.4527 12.2657 14.878 12.759C15.304 13.253 15.517 13.85 15.517 14.55C15.517 15.0207 15.4237 15.433 15.237 15.787C15.0517 16.1403 14.8117 16.4337 14.517 16.667C14.223 16.8997 13.896 17.079 13.536 17.205C13.176 17.331 12.8193 17.41 12.466 17.442V18.616H11.484ZM2.02 11.5C2.11 10.1113 2.436 8.837 2.998 7.677C3.56 6.517 4.29333 5.51367 5.198 4.667C6.10267 3.82033 7.137 3.16467 8.301 2.7C9.465 2.23533 10.698 2.002 12 2C13.9947 2 15.817 2.54333 17.467 3.63C19.117 4.71667 20.327 6.19333 21.097 8.06V4.692H22.097V9.692H17.097V8.692H20.302C19.6947 7.03067 18.6277 5.66667 17.101 4.6C15.5743 3.53333 13.874 3 12 3C10.8527 3 9.75567 3.20867 8.709 3.626C7.66233 4.04333 6.73133 4.624 5.916 5.368C5.10067 6.112 4.43333 7.00433 3.914 8.045C3.39467 9.08567 3.09667 10.2373 3.02 11.5H2.02Z" fill="#95d5b2"/>
</svg>
