<svg width="24" height="24" viewBox="0 0 24 24" fill="none" xmlns="http://www.w3.org/2000/svg">
<path d="M11.9998 22C9.9665 22 8.14417 21.4597 6.53283 20.379C4.92083 19.2983 3.71083 17.8443 2.90283 16.017V19.307H1.90283V14.307H6.90283V15.307H3.69883C4.3455 17.0203 5.4285 18.3973 6.94783 19.438C8.46717 20.4787 10.1512 20.9993 11.9998 21C13.1985 21 14.3245 20.785 15.3778 20.355C16.4312 19.9243 17.3588 19.3307 18.1608 18.574C18.9622 17.8167 19.6132 16.918 20.1138 15.878C20.6145 14.838 20.9035 13.712 20.9808 12.5H21.9808C21.9162 13.824 21.6095 15.063 21.0608 16.217C20.5122 17.371 19.7918 18.3777 18.8998 19.237C18.0078 20.0963 16.9695 20.7717 15.7848 21.263C14.5982 21.7543 13.3365 22 11.9998 22ZM11.4838 18.616V17.392C10.8038 17.2347 10.2242 16.9647 9.74483 16.582C9.2655 16.1993 8.88383 15.6653 8.59983 14.98L9.47983 14.599C9.75716 15.2183 10.1275 15.6957 10.5908 16.031C11.0542 16.3663 11.5738 16.534 12.1498 16.534C12.7385 16.534 13.2895 16.379 13.8028 16.069C14.3162 15.7597 14.5728 15.253 14.5728 14.549C14.5728 13.989 14.3878 13.549 14.0178 13.229C13.6478 12.909 12.9252 12.5517 11.8498 12.157C10.7765 11.7683 10.0142 11.358 9.56283 10.926C9.11083 10.494 8.88483 9.91833 8.88483 9.199C8.88483 8.59233 9.1125 8.03233 9.56783 7.519C10.0232 7.00567 10.6788 6.685 11.5348 6.557V5.384H12.5148V6.558C13.0382 6.59533 13.5265 6.776 13.9798 7.1C14.4332 7.424 14.7772 7.82667 15.0118 8.308L14.1418 8.65C13.9318 8.292 13.6575 7.99667 13.3188 7.764C12.9802 7.53133 12.5572 7.41533 12.0498 7.416C11.3898 7.416 10.8605 7.58567 10.4618 7.925C10.0632 8.26433 9.86483 8.68933 9.86683 9.2C9.86883 9.71067 10.0218 10.1037 10.3258 10.379C10.6325 10.6543 11.3372 10.9843 12.4398 11.369C13.6398 11.8023 14.4525 12.2657 14.8778 12.759C15.3038 13.253 15.5168 13.85 15.5168 14.55C15.5168 15.0207 15.4235 15.433 15.2368 15.787C15.0515 16.1403 14.8115 16.4337 14.5168 16.667C14.2228 16.8997 13.8958 17.079 13.5358 17.205C13.1758 17.331 12.8192 17.41 12.4658 17.442V18.616H11.4838ZM2.01983 11.5C2.10983 10.1113 2.43583 8.837 2.99783 7.677C3.55983 6.517 4.29317 5.51367 5.19783 4.667C6.1025 3.82033 7.13683 3.16467 8.30083 2.7C9.46483 2.23533 10.6978 2.002 11.9998 2C13.9945 2 15.8168 2.54333 17.4668 3.63C19.1168 4.71667 20.3268 6.19333 21.0968 8.06V4.692H22.0968V9.692H17.0968V8.692H20.3018C19.6945 7.03067 18.6275 5.66667 17.1008 4.6C15.5742 3.53333 13.8738 3 11.9998 3C10.8525 3 9.7555 3.20867 8.70883 3.626C7.66217 4.04333 6.73117 4.624 5.91583 5.368C5.1005 6.112 4.43317 7.00433 3.91383 8.045C3.3945 9.08567 3.0965 10.2373 3.01983 11.5H2.01983Z" fill="#95D5B2"/>
</svg>
