<svg width="24" height="24" viewBox="0 0 24 24" fill="none" xmlns="http://www.w3.org/2000/svg">
<g id="Icon 24/keyboard-arrow-down-rounded">
<path id="Vector" d="M12.0001 14.379C11.8928 14.379 11.7934 14.3613 11.7021 14.326C11.6108 14.2907 11.5218 14.2293 11.4351 14.142L7.0461 9.75399C6.95276 9.66065 6.90276 9.54599 6.8961 9.40999C6.88943 9.27399 6.93943 9.15265 7.0461 9.04599C7.15276 8.93932 7.27076 8.88599 7.4001 8.88599C7.52943 8.88599 7.64743 8.93932 7.7541 9.04599L12.0001 13.292L16.2461 9.04599C16.3394 8.95265 16.4544 8.90265 16.5911 8.89599C16.7264 8.88932 16.8474 8.93932 16.9541 9.04599C17.0608 9.15265 17.1141 9.27065 17.1141 9.39999C17.1141 9.52932 17.0608 9.64732 16.9541 9.75399L12.5651 14.142C12.4784 14.2293 12.3894 14.2907 12.2981 14.326C12.2074 14.3613 12.1081 14.379 12.0001 14.379Z" fill="#DEE6E5"/>
</g>
</svg>
