<svg width="24" height="24" viewBox="0 0 24 24" fill="none" xmlns="http://www.w3.org/2000/svg">
<path d="M24 11.9999C24.0004 17.9595 19.4285 24 12 24C4.57154 24 0 17.7258 3.42209e-09 12C6.84418e-09 6.27421 4.57113 0 12 0C19.4289 0 23.9996 6.04024 24 11.9999Z" fill="url(#paint0_linear_6003_41373)"/>
<path d="M23.6859 11.9999C23.6859 18.4536 18.4541 23.6854 12.0003 23.6854C5.54658 23.6854 0.314786 18.4536 0.314786 11.9999C0.314786 5.54612 5.54658 0.314326 12.0003 0.314326C18.4541 0.314326 23.6859 5.54612 23.6859 11.9999Z" fill="#1C2A25"/>
<path d="M9.66899 3.93684C10.4891 3.58628 10.8548 4.87169 11.0885 4.17056C11.3223 3.46942 11.3223 2.88515 11.8914 2.88515C12.8262 3.11886 12.1395 4.28741 12.6077 4.52112C13.0758 4.75483 13.2925 3.81999 13.7599 4.17056C13.7599 4.17056 13.8931 4.17056 14.0099 4.87169C14.1268 5.57282 15.1621 4.28741 15.6296 5.68968C15.7464 6.50767 14.8273 7.2088 14.9448 7.79308C15.0624 8.37735 16.8953 6.47504 17.1487 8.49421C17.3833 10.3639 15.0616 11.1819 15.0616 11.9999C15.0616 12.8179 16.6979 11.6493 16.3471 13.2853C16.1739 14.0932 14.3605 14.9213 14.7111 15.155C15.0616 15.3887 15.4122 15.155 15.4122 15.7392C15.4122 16.3235 12.939 17.1305 13.0751 17.6089C13.2111 18.0873 13.9945 17.4921 14.2282 17.9595C14.4548 18.9791 12.9918 18.6341 11.77 20.2547C11.7316 20.3057 11.6934 20.3585 11.6555 20.4135C11.6081 20.3465 11.5623 20.2829 11.518 20.2224C10.3405 18.6139 10.2409 19.2195 9.45256 18.5438C9.45256 18.5438 8.88557 17.9595 10.2706 17.7258C11.6555 17.4921 7.93415 16.3235 8.05029 15.3887C8.051 14.337 9.10191 14.9213 9.102 14.2201C9.10208 13.519 6.00018 12.1167 6.73862 9.66276C7.09012 8.49421 8.61883 9.54591 8.61729 8.84478C8.61575 8.14364 7.21596 6.74138 7.7993 6.04024C8.61822 5.45597 9.45257 6.97509 9.68628 6.50766C9.91999 6.04024 9.08684 4.28741 9.66899 3.93684Z" fill="url(#paint1_linear_6003_41373)"/>
<path d="M11.8892 6.40271L11.77 20.2547L11.7645 20.8896C11.7645 20.8896 11.63 20.9236 11.5308 20.8928C11.518 20.8888 11.5145 20.6447 11.518 20.2224C11.542 17.3717 11.8892 6.40271 11.8892 6.40271Z" fill="#1C2A25"/>
<defs>
<linearGradient id="paint0_linear_6003_41373" x1="24" y1="-7.15256e-07" x2="7.15256e-07" y2="24" gradientUnits="userSpaceOnUse">
<stop stop-color="#E5A000"/>
<stop offset="0.0983334" stop-color="#FFAA00"/>
<stop offset="0.478333" stop-color="#FFCF00"/>
<stop offset="0.623333" stop-color="#FFD300"/>
<stop offset="1" stop-color="#FFF6C5"/>
</linearGradient>
<linearGradient id="paint1_linear_6003_41373" x1="24" y1="-7.15256e-07" x2="7.15256e-07" y2="24" gradientUnits="userSpaceOnUse">
<stop stop-color="#E5A000"/>
<stop offset="0.0983334" stop-color="#FFAA00"/>
<stop offset="0.478333" stop-color="#FFCF00"/>
<stop offset="0.623333" stop-color="#FFD300"/>
<stop offset="1" stop-color="#FFF6C5"/>
</linearGradient>
</defs>
</svg>
