<svg width="24" height="25" viewBox="0 0 24 25" fill="none" xmlns="http://www.w3.org/2000/svg">
<path d="M11.75 19.4907H11.5C9.13333 19.4907 7.125 18.6657 5.475 17.0157C3.825 15.3657 3 13.3574 3 10.9907C3 8.62406 3.825 6.61572 5.475 4.96572C7.125 3.31572 9.13333 2.49072 11.5 2.49072C12.6833 2.49072 13.7877 2.71139 14.813 3.15272C15.8383 3.59406 16.7383 4.20239 17.513 4.97772C18.2877 5.75306 18.8957 6.65306 19.337 7.67772C19.7783 8.70239 19.9993 9.80672 20 10.9907C20 13.2241 19.3707 15.2991 18.112 17.2157C16.8533 19.1324 15.266 20.6324 13.35 21.7157C13.1833 21.7991 13.0167 21.8451 12.85 21.8537C12.6833 21.8624 12.5333 21.8247 12.4 21.7407C12.2667 21.6567 12.15 21.5484 12.05 21.4157C11.95 21.2831 11.8917 21.1247 11.875 20.9407L11.75 19.4907ZM14 18.8407C15.1833 17.8407 16.146 16.6701 16.888 15.3287C17.63 13.9874 18.0007 12.5414 18 10.9907C18 9.17406 17.3707 7.63672 16.112 6.37872C14.8533 5.12072 13.316 4.49139 11.5 4.49072C9.684 4.49006 8.14667 5.11939 6.888 6.37872C5.62933 7.63806 5 9.17539 5 10.9907C5 12.8061 5.62933 14.3437 6.888 15.6037C8.14667 16.8637 9.684 17.4927 11.5 17.4907H14V18.8407ZM11.475 16.4657C11.7583 16.4657 12 16.3657 12.2 16.1657C12.4 15.9657 12.5 15.7241 12.5 15.4407C12.5 15.1574 12.4 14.9157 12.2 14.7157C12 14.5157 11.7583 14.4157 11.475 14.4157C11.1917 14.4157 10.95 14.5157 10.75 14.7157C10.55 14.9157 10.45 15.1574 10.45 15.4407C10.45 15.7241 10.55 15.9657 10.75 16.1657C10.95 16.3657 11.1917 16.4657 11.475 16.4657ZM9.3 8.86572C9.48333 8.94906 9.66667 8.95339 9.85 8.87872C10.0333 8.80406 10.1833 8.68306 10.3 8.51572C10.45 8.31572 10.625 8.16139 10.825 8.05272C11.025 7.94406 11.25 7.89006 11.5 7.89072C11.9 7.89072 12.225 8.00306 12.475 8.22772C12.725 8.45239 12.85 8.74006 12.85 9.09072C12.85 9.30739 12.7877 9.52406 12.663 9.74072C12.5383 9.95739 12.3173 10.2241 12 10.5407C11.5833 10.9074 11.275 11.2534 11.075 11.5787C10.875 11.9041 10.775 12.2331 10.775 12.5657C10.775 12.7657 10.846 12.9367 10.988 13.0787C11.13 13.2207 11.3007 13.2914 11.5 13.2907C11.6993 13.2901 11.866 13.2151 12 13.0657C12.134 12.9164 12.234 12.7414 12.3 12.5407C12.3833 12.2574 12.5333 11.9991 12.75 11.7657C12.9667 11.5324 13.1667 11.3241 13.35 11.1407C13.7 10.7907 13.9627 10.4407 14.138 10.0907C14.3133 9.74072 14.4007 9.39072 14.4 9.04072C14.4 8.27406 14.1373 7.65739 13.612 7.19072C13.0867 6.72406 12.3827 6.49072 11.5 6.49072C10.9667 6.49072 10.475 6.62006 10.025 6.87872C9.575 7.13739 9.20833 7.49139 8.925 7.94072C8.825 8.12406 8.81233 8.30339 8.887 8.47872C8.96167 8.65406 9.09933 8.78306 9.3 8.86572Z" fill="black"/>
</svg>
