<svg width="24" height="24" viewBox="0 0 24 24" fill="none" xmlns="http://www.w3.org/2000/svg">
<path d="M11.058 13.808C11.8193 13.808 12.468 13.54 13.004 13.004C13.54 12.468 13.808 11.8193 13.808 11.058C13.808 10.2967 13.54 9.64767 13.004 9.111C12.468 8.57567 11.8193 8.308 11.058 8.308C10.2967 8.308 9.648 8.57567 9.112 9.111C8.576 9.64633 8.308 10.2953 8.308 11.058C8.308 11.8207 8.57567 12.4693 9.111 13.004C9.64633 13.5387 10.2953 13.8067 11.058 13.808ZM11.058 14.808C10.0153 14.808 9.12967 14.4433 8.401 13.714C7.67233 12.9847 7.308 12.0993 7.308 11.058C7.308 10.0167 7.672 9.13067 8.4 8.4C9.128 7.66933 10.0137 7.305 11.057 7.307C12.1003 7.309 12.986 7.67333 13.714 8.4C14.442 9.12667 14.8067 10.0123 14.808 11.057C14.808 11.4783 14.741 11.8797 14.607 12.261C14.473 12.6423 14.2783 12.9997 14.023 13.333L16.453 15.745C16.551 15.8423 16.6023 15.957 16.607 16.089C16.611 16.221 16.558 16.3423 16.448 16.453C16.338 16.5597 16.22 16.6137 16.094 16.615C15.968 16.6163 15.85 16.5623 15.74 16.453L13.334 14.028C13.0007 14.2827 12.6433 14.476 12.262 14.608C11.8807 14.7407 11.4793 14.808 11.058 14.808ZM5.616 20C5.15533 20 4.771 19.846 4.463 19.538C4.155 19.23 4.00067 18.8453 4 18.384V15.5C4 15.358 4.04767 15.239 4.143 15.143C4.23833 15.047 4.35733 14.9993 4.5 15C4.64267 15.0007 4.76167 15.0483 4.857 15.143C4.95233 15.2377 5 15.3567 5 15.5V18.385C5 18.5383 5.064 18.6793 5.192 18.808C5.32 18.9367 5.461 19.0007 5.615 19H8.5C8.64267 19 8.76167 19.0477 8.857 19.143C8.95233 19.2383 9 19.3573 9 19.5C9 19.6427 8.95233 19.7617 8.857 19.857C8.76167 19.9523 8.64267 20 8.5 20H5.616ZM18.385 20H15.5C15.358 20 15.239 19.9523 15.143 19.857C15.047 19.7617 14.9993 19.6427 15 19.5C15.0007 19.3573 15.0483 19.2383 15.143 19.143C15.2377 19.0477 15.3567 19 15.5 19H18.385C18.5383 19 18.6793 18.936 18.808 18.808C18.9367 18.68 19.0007 18.5387 19 18.384V15.5C19 15.358 19.0477 15.239 19.143 15.143C19.2383 15.047 19.3573 14.9993 19.5 15C19.6427 15.0007 19.7617 15.0483 19.857 15.143C19.9523 15.2377 20 15.3567 20 15.5V18.385C20 18.845 19.846 19.229 19.538 19.537C19.23 19.845 18.8463 19.9993 18.385 20ZM4 8.5V5.616C4 5.15533 4.15433 4.771 4.463 4.463C4.77167 4.155 5.156 4.00067 5.616 4H8.5C8.64267 4 8.76167 4.04767 8.857 4.143C8.95233 4.23833 9 4.35733 9 4.5C9 4.64267 8.95233 4.76167 8.857 4.857C8.76167 4.95233 8.64267 5 8.5 5H5.616C5.462 5 5.32067 5.064 5.192 5.192C5.06333 5.32 4.99933 5.46133 5 5.616V8.5C5 8.64267 4.95233 8.76167 4.857 8.857C4.76167 8.95233 4.64267 9 4.5 9C4.35733 9 4.23833 8.95233 4.143 8.857C4.04767 8.76167 4 8.64267 4 8.5ZM19 8.5V5.616C19 5.462 18.936 5.32067 18.808 5.192C18.68 5.06333 18.5387 4.99933 18.384 5H15.5C15.358 5 15.239 4.95233 15.143 4.857C15.047 4.76167 14.9993 4.64267 15 4.5C15.0007 4.35733 15.0483 4.23833 15.143 4.143C15.2377 4.04767 15.3567 4 15.5 4H18.385C18.845 4 19.229 4.15433 19.537 4.463C19.845 4.77167 19.9993 5.156 20 5.616V8.5C20 8.64267 19.9523 8.76167 19.857 8.857C19.7617 8.95233 19.6427 9 19.5 9C19.3573 9 19.2383 8.95233 19.143 8.857C19.0477 8.76167 19 8.64267 19 8.5Z" fill="#061814"/>
</svg>
