<svg xmlns="http://www.w3.org/2000/svg" width="24" height="24" viewBox="0 0 24 24" fill="none">
  <path d="M3.5 17.3926C3.50191 17.6869 3.6022 17.9635 3.81934 18.1807C4.03859 18.3999 4.31868 18.5 4.61621 18.5C4.32159 18.5 4.08947 18.4181 3.89648 18.2578L3.81641 18.1846C3.63397 18.0021 3.52861 17.7839 3.50488 17.5059L3.5 17.3926ZM19.4961 18.4951C19.7516 18.4728 19.9893 18.3721 20.1807 18.1807C20.3997 17.9616 20.4998 17.682 20.5 17.3848L20.4951 17.5068C20.4718 17.7832 20.3669 18.0013 20.1836 18.1846C20.0005 18.3677 19.783 18.4721 19.5078 18.4951L19.3857 18.5H19.3848L19.4961 18.4951Z" stroke="#F7FFFD"/>
</svg>