<svg width="325" height="240" viewBox="0 0 325 240" fill="none" xmlns="http://www.w3.org/2000/svg">
<path d="M162.5 0.0996094C252.191 0.0996094 324.9 72.809 324.9 162.5C324.9 252.191 252.191 324.9 162.5 324.9C72.809 324.9 0.0996094 252.191 0.0996094 162.5C0.0996094 72.809 72.809 0.0996094 162.5 0.0996094ZM306.06 162.5C306.06 241.786 241.786 306.06 162.5 306.06C83.2143 306.06 18.9404 241.786 18.9404 162.5C18.9404 83.2143 83.2143 18.9404 162.5 18.9404C241.786 18.9404 306.06 83.2143 306.06 162.5ZM268.378 162.5C268.378 220.975 220.975 268.378 162.5 268.378C104.025 268.378 56.6221 220.975 56.6221 162.5C56.6221 104.025 104.025 56.6221 162.5 56.6221C220.975 56.6221 268.378 104.025 268.378 162.5ZM193.016 162.5C193.016 179.353 179.353 193.016 162.5 193.016C145.647 193.016 131.984 179.353 131.984 162.5C131.984 145.647 145.647 131.984 162.5 131.984C179.353 131.984 193.016 145.647 193.016 162.5ZM174.176 162.5C174.176 168.948 168.948 174.176 162.5 174.176C156.052 174.176 150.824 168.948 150.824 162.5C150.824 156.052 156.052 150.824 162.5 150.824C168.948 150.824 174.176 156.052 174.176 162.5ZM174.375 162.5C174.375 155.941 169.059 150.625 162.5 150.625C155.941 150.625 150.625 155.941 150.625 162.5C150.625 169.059 155.941 174.375 162.5 174.375C169.059 174.375 174.375 169.059 174.375 162.5ZM193.216 162.5C193.216 145.536 179.464 131.784 162.5 131.784C145.536 131.784 131.784 145.536 131.784 162.5C131.784 179.464 145.536 193.216 162.5 193.216C179.464 193.216 193.216 179.464 193.216 162.5ZM268.578 162.5C268.578 103.915 221.085 56.4219 162.5 56.4219C103.915 56.4219 56.4219 103.915 56.4219 162.5C56.4219 221.085 103.915 268.578 162.5 268.578C221.085 268.578 268.578 221.085 268.578 162.5ZM306.26 162.5C306.26 83.1039 241.896 18.7402 162.5 18.7402C83.1039 18.7402 18.7402 83.1039 18.7402 162.5C18.7402 241.896 83.1039 306.26 162.5 306.26C241.896 306.26 306.26 241.896 306.26 162.5Z" stroke="url(#paint0_linear_4035_176120)" stroke-width="0.2"/>
<defs>
<linearGradient id="paint0_linear_4035_176120" x1="325" y1="-9.68576e-06" x2="9.68576e-06" y2="325" gradientUnits="userSpaceOnUse">
<stop stop-color="#E5A000"/>
<stop offset="0.0983334" stop-color="#FFAA00"/>
<stop offset="0.478333" stop-color="#FFCF00"/>
<stop offset="0.623333" stop-color="#FFD300"/>
<stop offset="1" stop-color="#FFF6C5"/>
</linearGradient>
</defs>
</svg>
