<svg width="40" height="40" viewBox="0 0 40 40" fill="none" xmlns="http://www.w3.org/2000/svg">
<g filter="url(#filter0_d_1273_44732)">
<g clip-path="url(#clip0_1273_44732)">
<rect x="8" y="8" width="24" height="24" rx="4" fill="#388964"/>
<path d="M18.2572 24.601C17.8667 24.9915 17.2335 24.9915 16.843 24.601L12.9371 20.6951C12.74 20.498 12.7401 20.1783 12.9373 19.9813C13.1344 19.7846 13.4536 19.7847 13.6506 19.9816L16.843 23.174C17.2335 23.5645 17.8667 23.5645 18.2572 23.174L26.3491 15.0821C26.5462 14.885 26.8658 14.8851 27.0628 15.0823C27.2596 15.2794 27.2595 15.5987 27.0626 15.7956L18.2572 24.601Z" fill="#F7FFFD"/>
</g>
<rect x="8.5" y="8.5" width="23" height="23" rx="3.5" stroke="url(#paint0_linear_1273_44732)" stroke-opacity="0.19"/>
</g>
<defs>
<filter id="filter0_d_1273_44732" x="-42" y="-42" width="124" height="124" filterUnits="userSpaceOnUse" color-interpolation-filters="sRGB">
<feFlood flood-opacity="0" result="BackgroundImageFix"/>
<feColorMatrix in="SourceAlpha" type="matrix" values="0 0 0 0 0 0 0 0 0 0 0 0 0 0 0 0 0 0 127 0" result="hardAlpha"/>
<feOffset/>
<feGaussianBlur stdDeviation="4"/>
<feComposite in2="hardAlpha" operator="out"/>
<feColorMatrix type="matrix" values="0 0 0 0 0.925 0 0 0 0 1 0 0 0 0 0.99 0 0 0 0.01 0"/>
<feBlend mode="normal" in2="BackgroundImageFix" result="effect1_dropShadow_1273_44732"/>
<feBlend mode="normal" in="SourceGraphic" in2="effect1_dropShadow_1273_44732" result="shape"/>
</filter>
<linearGradient id="paint0_linear_1273_44732" x1="8.67059" y1="8.7234" x2="34.1961" y2="13.0648" gradientUnits="userSpaceOnUse">
<stop stop-color="white"/>
<stop offset="1" stop-color="#86BFAE" stop-opacity="0.5"/>
</linearGradient>
<clipPath id="clip0_1273_44732">
<rect x="8" y="8" width="24" height="24" rx="4" fill="white"/>
</clipPath>
</defs>
</svg>
