<svg width="24" height="25" viewBox="0 0 24 25" fill="none" xmlns="http://www.w3.org/2000/svg">
<g id="Icon 24/arrow-forward-ios-rounded">
<path id="Vector" d="M15.187 12.5L7.46999 4.785C7.32266 4.63767 7.24999 4.46033 7.25199 4.253C7.25399 4.04633 7.32866 3.869 7.47599 3.721C7.62399 3.57367 7.80166 3.5 8.00899 3.5C8.21566 3.5 8.39299 3.57367 8.54099 3.721L16.177 11.364C16.3383 11.5253 16.4563 11.7053 16.531 11.904C16.6057 12.1027 16.6427 12.3013 16.642 12.5C16.6413 12.6987 16.6043 12.8973 16.531 13.096C16.4577 13.2947 16.3397 13.4747 16.177 13.636L8.53499 21.28C8.38699 21.4273 8.21033 21.5 8.00499 21.498C7.80033 21.496 7.62433 21.4213 7.47699 21.274C7.32966 21.1267 7.25599 20.9493 7.25599 20.742C7.25599 20.5347 7.32966 20.3577 7.47699 20.211L15.187 12.5Z" fill="#95A5A3"/>
</g>
</svg>
