<svg width="12" height="20" viewBox="0 0 12 20" fill="none" xmlns="http://www.w3.org/2000/svg">
<path d="M4.60005 13.5C4.60005 12.15 4.72105 11.1793 4.96305 10.588C5.20505 9.99667 5.71738 9.35067 6.50005 8.65C7.18338 8.05 7.70438 7.52933 8.06305 7.088C8.42171 6.64667 8.60072 6.14233 8.60005 5.575C8.60005 4.89167 8.37105 4.325 7.91305 3.875C7.45505 3.425 6.81738 3.2 6.00005 3.2C5.15005 3.2 4.50438 3.45833 4.06305 3.975C3.62172 4.49167 3.30905 5.01667 3.12505 5.55L0.550049 4.45C0.900049 3.38333 1.54172 2.45833 2.47505 1.675C3.40838 0.891667 4.58338 0.5 6.00005 0.5C7.75005 0.5 9.09605 0.987666 10.038 1.963C10.98 2.93833 11.4507 4.109 11.45 5.475C11.45 6.30833 11.271 7.021 10.913 7.613C10.555 8.205 9.99238 8.87567 9.22505 9.625C8.40838 10.4083 7.91272 11.0043 7.73805 11.413C7.56338 11.8217 7.47572 12.5173 7.47505 13.5H4.60005ZM6.00005 19.5C5.45005 19.5 4.97938 19.3043 4.58805 18.913C4.19672 18.5217 4.00072 18.0507 4.00005 17.5C3.99938 16.9493 4.19538 16.4787 4.58805 16.088C4.98072 15.6973 5.45138 15.5013 6.00005 15.5C6.54872 15.4987 7.01972 15.6947 7.41305 16.088C7.80638 16.4813 8.00205 16.952 8.00005 17.5C7.99805 18.048 7.80238 18.519 7.41305 18.913C7.02372 19.307 6.55272 19.5027 6.00005 19.5Z" fill="black"/>
</svg>
